<?xml version="1.0" encoding="UTF-8"?>
<svg id="Layer_2" data-name="Layer 2" xmlns="http://www.w3.org/2000/svg" viewBox="0 0 293.17 264.49">
  <defs>
    <style>
      .cls-1 {
        fill: none;
        stroke: #6ba3bc;
        stroke-miterlimit: 10;
        stroke-width: 6.05px;
      }
    </style>
  </defs>
  <g id="Layer_1-2" data-name="Layer 1">
    <g id="uuid-4ae98cf9-af52-4b49-a47e-d564b1721808" data-name="Layer 1-2">
      <path class="cls-1" d="M251.73,227.3c25.61-23.24,38.42-54.89,38.42-94.93s-12.77-71.62-38.33-94.71C226.28,14.57,191.27,3.02,146.78,3.02S67.05,14.55,41.44,37.66C15.83,60.76,3.02,92.33,3.02,132.37s12.88,71.69,38.62,94.93c22.1,19.93,51.03,31.31,86.84,34.14,3.98.31,7.4-2.79,7.4-6.78v-93.78c0-3.76-3.05-6.8-6.8-6.8H62.14c-3.76,0-6.8-3.05-6.8-6.8v-39.44c0-3.76,3.05-6.8,6.8-6.8h0c24.97,0,43.96-4.2,56.95-12.62,11.77-7.62,19.79-19.43,24.05-35.43.79-2.96,3.49-5.01,6.56-5.01h51.04c3.76,0,6.8,3.05,6.8,6.8v188.34c0,4.88,5,8.18,9.49,6.26,13.03-5.56,24.59-12.9,34.69-22.07"/>
    </g>
  </g>
</svg>