<?xml version="1.0" encoding="UTF-8"?>
<svg id="Layer_2" data-name="Layer 2" xmlns="http://www.w3.org/2000/svg" viewBox="0 0 1432.1 427.04">
  <defs>
    <style>
      .cls-1 {
        fill: #393839;
      }

      .cls-2 {
        fill: none;
        stroke: #6ba3bc;
        stroke-miterlimit: 10;
        stroke-width: 6.05px;
      }
    </style>
  </defs>
  <g id="Layer_1-2" data-name="Layer 1">
    <g>
      <g>
        <path class="cls-2" d="M411.25,386.92c0,4.7-1.22,8.01-3.66,10.27l-22.81,21.07c-4.18,3.83-9.06,5.75-14.8,5.75h-50.68c-5.75,0-8.71-2.96-8.71-8.71v-106.23c0-4.7,2.26-6.97,6.97-6.97h70.18c15.67,0,23.51,7.49,23.51,22.47v62.34ZM345.6,325.97c-1.74,0-2.61.87-2.61,2.44v68.61c0,2.09.87,3.13,2.61,3.13h13.76c2.26,0,4.35-1.04,5.92-2.96l4.18-5.22c1.22-1.57,1.74-3.66,1.74-5.92v-51.37c0-5.75-3.31-8.71-9.75-8.71h-15.85Z"/>
        <path class="cls-2" d="M468.2,417.05c0,4.7-2.26,6.97-6.97,6.97h-33.44c-4.7,0-6.97-2.26-6.97-6.97v-43.36c0-2.61.7-4.88,1.92-6.79l9.58-14.28c1.39-2.09,2.09-4.53,2.09-7.14v-36.4c0-4.7,2.26-6.97,6.97-6.97h19.85c4.7,0,6.97,2.26,6.97,6.97v107.97Z"/>
        <path class="cls-2" d="M570.77,321.79c0,2.79-1.39,4.18-4.01,4.18h-43.36c-2.61,0-4.01,1.39-4.01,4.35v9.75c0,3.31,1.39,4.35,4.01,4.7l35,5.57c9.58,1.57,14.28,8.01,14.28,19.33v23.86c0,20.38-9.06,30.48-27.17,30.48h-30.82c-4.35,0-9.06-.7-13.93-1.57l-15.67-2.79c-2.61-.52-3.48-2.61-3.48-5.4v-9.93c0-2.79,1.22-4.18,3.66-4.18h45.63c2.61,0,4.01-1.39,4.01-4.35v-10.45c0-2.96-1.39-4.7-4.01-5.22l-33.09-7.31c-12.02-2.61-15.85-7.84-15.85-18.98v-28.91c0-15.15,7.49-22.81,22.64-22.81h62.17c2.61,0,4.01,1.22,4.01,3.83v15.85Z"/>
        <path class="cls-2" d="M684.66,348.61c0,4.7-1.22,8.01-3.66,10.27l-22.81,21.07c-3.31,2.96-7.31,5.75-12.02,5.75h-20.55c-1.22,0-1.74.7-1.74,1.92v29.43c0,4.7-2.26,6.97-6.97,6.97h-24.21c-4.7,0-6.97-2.26-6.97-6.97v-107.8c0-4.7,2.26-7.14,6.97-7.14h68.44c18.11,0,23.51,2.96,23.51,22.47v24.03ZM625.97,323.88c-1.39,0-2.09.87-2.09,2.44v35.53c0,1.39.7,2.09,2.09,2.09h13.76c2.44,0,4.35-1.04,5.92-2.96l4.18-5.22c1.22-1.74,1.74-3.66,1.74-5.92v-17.24c0-5.75-3.31-8.71-9.75-8.71h-15.85Z"/>
        <path class="cls-2" d="M735.86,395.81c0,2.96,1.39,4.35,4.35,4.35h28.04c2.61,0,3.83,1.39,3.83,4.18v14.28c0,2.79-1.22,4.53-3.66,5.4h-48.06c-16.2,0-24.38-8.01-24.38-24.21v-90.73c0-4.7,2.26-6.97,6.97-6.97h25.95c4.7,0,6.97,2.26,6.97,6.97v86.73Z"/>
        <path class="cls-2" d="M882.32,417.05c0,4.7-2.26,6.97-6.97,6.97h-18.46c-4.7,0-6.97-2.26-6.97-6.97v-31.7c0-1.57-.87-2.44-2.44-2.44h-20.55c-1.57,0-2.26.7-2.26,2.26v31.87c0,4.7-2.26,6.97-6.97,6.97h-33.44c-4.7,0-6.97-2.26-6.97-6.97v-36.4c0-2.61.7-4.88,1.92-6.79l9.58-14.28c1.39-2.09,2.09-4.53,2.09-7.14v-9.75c0-3.66,1.22-7.14,3.66-10.28l16.89-22.81c3.66-5.05,8.71-7.49,14.98-7.49h43.71c8.19,0,12.19,4.01,12.19,12.19v102.75ZM835.64,325.97c-2.09,0-3.83,1.04-5.05,2.96l-4.35,6.97c-1.04,1.57-1.57,3.31-1.57,5.05v18.63c0,1.57.7,2.26,2.09,2.26h20.72c1.57,0,2.44-.7,2.44-2.26v-28.91c0-3.13-1.39-4.7-4.01-4.7h-10.27Z"/>
        <path class="cls-2" d="M992.38,370.9c0,9.23-4.7,13.93-13.93,13.93h-11.49c-1.92,0-2.79.87-2.79,2.61v29.61c0,4.7-2.26,6.97-6.97,6.97h-24.21c-4.7,0-6.97-2.26-6.97-6.97v-29.61c0-1.74-.87-2.61-2.61-2.61h-15.85c-9.23,0-13.93-4.7-13.93-13.93v-61.82c0-4.7,2.26-6.97,6.97-6.97h25.95c4.7,0,6.97,2.26,6.97,6.97v50.85c0,3.48,1.74,5.22,5.05,5.22h17.59c2.96,0,4.35-1.74,4.35-5.22v-50.85c0-4.7,2.26-6.97,6.97-6.97h17.94c4.7,0,6.97,2.26,6.97,6.97v61.82Z"/>
      </g>
      <g id="uuid-9370af4e-9f18-4b41-806e-6ef1b15b3d04" data-name="Layer 1-2">
        <path class="cls-1" d="M248.7,241.39c25.61-23.24,38.42-54.89,38.42-94.93s-12.77-71.62-38.33-94.71c-25.54-23.09-60.54-34.64-105.03-34.64s-79.73,11.53-105.34,34.64C12.81,74.84,0,106.42,0,146.46s12.88,71.69,38.62,94.93c23.6,21.29,55,32.82,94.24,34.6v-107.83H52.32v-53.05h6.8c24.97,0,43.96-4.2,56.95-12.62,12.97-8.39,21.38-21.87,25.23-40.44h63.22v205.05c16.96-5.84,31.69-14.37,44.18-25.72M449.58,237.1h54.83v-97.45c0-16.23-.8-28.18-2.41-35.83-1.59-7.62-4.27-14.28-8.01-19.96-6.09-9.08-14.76-16.07-25.98-21-11.22-4.93-24.26-7.39-39.11-7.39-13.15,0-25.5,2.61-37.05,7.86-11.53,5.22-22.16,13.04-31.89,23.4v-26.63h-54.82v176.96h54.82v-87.36c0-15.6,4.58-27.85,13.72-36.77,9.14-8.94,21.65-13.41,37.6-13.41,14.1,0,24.01,3.68,29.72,11.05,5.71,7.39,8.57,20.96,8.57,40.71v85.79h0ZM574.66,125.99c.97-10.78,5.44-19.35,13.39-25.7,7.95-6.37,18.26-9.56,30.86-9.56s23.04,3.17,30.94,9.47c7.92,6.29,12.33,14.94,13.32,25.96l-88.51-.16ZM573.05,162.88h151v-7.53c0-32.49-9.23-57.53-27.65-75.1-18.46-17.57-44.71-26.38-78.8-26.38s-58.7,8.48-77.73,25.41c-19.03,16.93-28.55,40-28.55,69.17s9.54,52.3,28.62,69.32c19.08,17.06,44.97,25.57,77.64,25.57,25.79,0,47.63-5.55,65.58-16.6,17.95-11.05,30.57-26.72,37.83-47.03h-60.43c-3.32,8.12-8.72,14.39-16.18,18.83-7.5,4.41-16.42,6.64-26.8,6.64-13.24,0-23.88-3.79-31.96-11.46-8.06-7.62-12.26-17.91-12.57-30.85M794.89,106.13c0-5.02,3.14-8.99,9.39-11.86,6.26-2.88,14.92-4.32,26.03-4.32,13.26,0,23.4,1.9,30.46,5.69,7.06,3.79,11.22,9.58,12.51,17.4h54.82v-1.61c0-17.93-8.37-32.03-25.17-42.23-16.78-10.22-40.02-15.32-69.72-15.32s-54.91,5.16-71.43,15.47c-16.51,10.32-24.75,25.19-24.75,44.65,0,14.96,5.34,27.33,16.03,37.1,10.67,9.78,25.15,15.45,43.43,17.06l49.53,4.34c12.62.95,20.89,2.44,24.79,4.47,3.9,2.04,5.84,5.34,5.84,9.92,0,5.16-3.43,9.3-10.34,12.53-6.88,3.19-16.05,4.8-27.49,4.8-16.67,0-28.89-1.97-36.63-5.93-7.75-3.96-12.06-10.38-12.91-19.23h-57.86c1.17,21.25,10.4,37.29,27.65,48.08,17.26,10.76,42.3,16.2,75.1,16.2s57.13-5.51,73.97-16.51c16.84-11.02,25.23-27.09,25.23-48.27,0-15.49-5.09-27.8-15.29-36.94-10.22-9.12-24.83-14.39-43.85-15.8l-38.33-3.05c-14.96-1.17-25.54-3.05-31.74-5.62-6.17-2.55-9.27-6.24-9.27-11.05M996.73,60.12h-54.49v176.96h54.49V60.12ZM942.24,42.5h54.49V0h-54.49v42.5ZM1168.16,142.52c0,14.41-4.67,25.92-14.03,34.46-9.36,8.57-21.93,12.84-37.76,12.84s-28.57-4.27-37.91-12.84c-9.36-8.54-14.03-20.05-14.03-34.46s4.69-25.9,14.03-34.46c9.34-8.56,21.98-12.84,37.91-12.84s28.4,4.29,37.76,12.84c9.36,8.56,14.03,20.03,14.03,34.46M1218.51,249.41c2.99-8.74,4.49-23.39,4.49-43.89V60.12h-54.83v16.03c-7.48-7.15-16.27-12.44-26.36-15.87-10.09-3.43-22.09-5.13-35.99-5.13-29.7,0-53.87,8.15-72.45,24.44-18.59,16.29-27.89,37.25-27.89,62.9s9.32,46.95,27.96,63.01c18.66,16,43.1,24.04,73.35,24.04,13.46,0,25.21-1.81,35.24-5.31,10.07-3.52,18.77-8.87,26.14-16.02v11.84c0,14.98-3.87,25.41-11.6,31.36-7.75,5.93-21.56,8.88-41.46,8.88-13.46,0-23.46-1.82-29.97-5.53-6.51-3.7-9.78-9.28-9.78-16.75h-54.82v3.06c0,19.34,7.92,33.87,23.73,43.65,15.82,9.78,39.33,14.67,70.52,14.67,20.32,0,37.65-2.17,52.02-6.59,14.39-4.36,26.58-11.16,36.65-20.34,7.04-6.6,12.06-14.28,15.05-23.08M1432.1,237.1v-97.45c0-16.23-.8-28.18-2.41-35.83-1.61-7.62-4.27-14.28-8.01-19.96-6.09-9.08-14.74-16.07-25.98-21-11.22-4.93-24.26-7.39-39.11-7.39-13.13,0-25.48,2.61-37.03,7.86-11.55,5.22-22.18,13.04-31.9,23.4v-26.63h-54.82v176.96h54.82v-87.36c0-15.6,4.58-27.85,13.72-36.77,9.12-8.94,21.67-13.41,37.6-13.41,14.1,0,24.02,3.68,29.73,11.05,5.71,7.39,8.57,20.96,8.57,40.71v85.75h54.82v.04h0Z"/>
      </g>
    </g>
  </g>
</svg>