<?xml version="1.0" encoding="UTF-8"?>
<svg id="Layer_2" data-name="Layer 2" xmlns="http://www.w3.org/2000/svg" xmlns:xlink="http://www.w3.org/1999/xlink" viewBox="0 0 1289.74 258.88">
  <defs>
    <style>
      .cls-1 {
        fill: #fff;
      }

      .cls-2 {
        fill: none;
        stroke: #95daf8;
        stroke-miterlimit: 10;
        stroke-width: 5.67px;
      }

      .cls-3 {
        filter: url(#outer-glow-1);
      }
    </style>
    <filter id="outer-glow-1" x="313.01" y="17.64" width="1001.04" height="223.68" filterUnits="userSpaceOnUse">
      <feOffset dx="0" dy="0"/>
      <feGaussianBlur result="blur" stdDeviation="8.06"/>
      <feFlood flood-color="#24545b" flood-opacity=".99"/>
      <feComposite in2="blur" operator="in"/>
      <feComposite in="SourceGraphic"/>
    </filter>
  </defs>
  <g id="Layer_1-2" data-name="Layer 1">
    <g>
      <g class="cls-3">
        <path class="cls-2" d="M479.84,162.57c0,6.53-1.69,11.12-5.08,14.27l-31.68,29.26c-5.8,5.32-12.58,7.98-20.56,7.98h-70.38c-7.98,0-12.09-4.11-12.09-12.09V54.47c0-6.53,3.14-9.67,9.67-9.67h97.47c21.77,0,32.65,10.4,32.65,31.2v86.58ZM388.66,77.93c-2.42,0-3.63,1.21-3.63,3.39v95.29c0,2.9,1.21,4.35,3.63,4.35h19.11c3.14,0,6.05-1.45,8.22-4.11l5.8-7.26c1.69-2.18,2.42-5.08,2.42-8.22v-71.35c0-7.98-4.6-12.09-13.54-12.09h-22.01Z"/>
        <path class="cls-2" d="M558.93,204.42c0,6.53-3.14,9.67-9.67,9.67h-46.44c-6.53,0-9.67-3.14-9.67-9.67v-60.22c0-3.63.97-6.77,2.66-9.43l13.3-19.83c1.93-2.9,2.9-6.29,2.9-9.92v-50.55c0-6.53,3.14-9.67,9.67-9.67h27.57c6.53,0,9.67,3.14,9.67,9.67v149.95Z"/>
        <path class="cls-2" d="M701.38,72.12c0,3.87-1.94,5.8-5.56,5.8h-60.22c-3.63,0-5.56,1.93-5.56,6.05v13.54c0,4.59,1.93,6.05,5.56,6.53l48.61,7.74c13.3,2.18,19.83,11.13,19.83,26.85v33.13c0,28.3-12.58,42.32-37.73,42.32h-42.81c-6.05,0-12.58-.97-19.35-2.18l-21.77-3.87c-3.63-.73-4.84-3.63-4.84-7.5v-13.79c0-3.87,1.69-5.8,5.08-5.8h63.37c3.63,0,5.56-1.93,5.56-6.05v-14.51c0-4.11-1.93-6.53-5.56-7.25l-45.95-10.16c-16.69-3.63-22.01-10.88-22.01-26.36v-40.15c0-21.04,10.4-31.68,31.44-31.68h86.34c3.63,0,5.56,1.69,5.56,5.32v22.01Z"/>
        <path class="cls-2" d="M859.55,109.37c0,6.53-1.69,11.12-5.08,14.27l-31.68,29.26c-4.59,4.11-10.16,7.98-16.69,7.98h-28.54c-1.69,0-2.42.97-2.42,2.66v40.87c0,6.53-3.14,9.67-9.67,9.67h-33.62c-6.53,0-9.67-3.14-9.67-9.67V54.71c0-6.53,3.14-9.92,9.67-9.92h95.05c25.15,0,32.65,4.11,32.65,31.2v33.38ZM778.04,75.02c-1.93,0-2.9,1.21-2.9,3.39v49.34c0,1.93.97,2.9,2.9,2.9h19.11c3.39,0,6.05-1.45,8.22-4.11l5.8-7.25c1.69-2.42,2.42-5.08,2.42-8.22v-23.94c0-7.98-4.59-12.09-13.54-12.09h-22.01Z"/>
        <path class="cls-2" d="M930.65,174.91c0,4.11,1.93,6.05,6.05,6.05h38.94c3.63,0,5.32,1.93,5.32,5.8v19.83c0,3.87-1.69,6.29-5.08,7.5h-66.75c-22.49,0-33.86-11.12-33.86-33.62V54.47c0-6.53,3.14-9.67,9.67-9.67h36.04c6.53,0,9.67,3.14,9.67,9.67v120.44Z"/>
        <path class="cls-2" d="M1134.05,204.42c0,6.53-3.14,9.67-9.67,9.67h-25.64c-6.53,0-9.67-3.14-9.67-9.67v-44.02c0-2.18-1.21-3.39-3.39-3.39h-28.54c-2.18,0-3.14.97-3.14,3.14v44.26c0,6.53-3.14,9.67-9.67,9.67h-46.44c-6.53,0-9.67-3.14-9.67-9.67v-50.55c0-3.63.97-6.77,2.66-9.43l13.3-19.83c1.93-2.9,2.9-6.29,2.9-9.92v-13.54c0-5.08,1.69-9.92,5.08-14.27l23.46-31.68c5.08-7.01,12.09-10.4,20.8-10.4h60.71c11.37,0,16.93,5.56,16.93,16.93v142.69ZM1069.23,77.93c-2.9,0-5.32,1.45-7.01,4.11l-6.05,9.67c-1.45,2.18-2.18,4.59-2.18,7.01v25.88c0,2.18.97,3.14,2.9,3.14h28.78c2.18,0,3.39-.97,3.39-3.14v-40.15c0-4.35-1.93-6.53-5.56-6.53h-14.27Z"/>
        <path class="cls-2" d="M1286.9,140.32c0,12.82-6.53,19.35-19.35,19.35h-15.96c-2.66,0-3.87,1.21-3.87,3.63v41.12c0,6.53-3.14,9.67-9.67,9.67h-33.62c-6.53,0-9.67-3.14-9.67-9.67v-41.12c0-2.42-1.21-3.63-3.63-3.63h-22.01c-12.82,0-19.35-6.53-19.35-19.35V54.47c0-6.53,3.14-9.67,9.67-9.67h36.04c6.53,0,9.67,3.14,9.67,9.67v70.62c0,4.84,2.42,7.25,7.01,7.25h24.43c4.11,0,6.05-2.42,6.05-7.25V54.47c0-6.53,3.14-9.67,9.67-9.67h24.91c6.53,0,9.67,3.14,9.67,9.67v85.86Z"/>
      </g>
      <g id="uuid-8b712740-6123-4163-8370-0b9ae62c6cfc" data-name="Layer 1-2">
        <path class="cls-1" d="M248.7,224.28c25.61-23.24,38.42-54.89,38.42-94.93s-12.77-71.62-38.33-94.71C223.26,11.55,188.25,0,143.76,0S64.03,11.53,38.42,34.64C12.81,57.73,0,89.31,0,129.35s12.88,71.69,38.62,94.93c23.6,21.29,55,32.82,94.24,34.6v-107.83H52.32v-53.05h6.8c24.97,0,43.96-4.2,56.95-12.62,12.97-8.39,21.38-21.87,25.23-40.44h63.22v205.05c16.96-5.84,31.69-14.37,44.18-25.72"/>
      </g>
    </g>
  </g>
</svg>